ModelForces
version=1
nRows=4
nColumns=141
inDegrees=no

This file contains the forces exerted on a model during a simulation.

A force is a generalized force, meaning that it can be either a force (N) or a torque (Nm).

Units are S.I. units (second, meters, Newtons, ...)
Angles are in degrees.

endheader
time	glut_med1_r	glut_med2_r	glut_med3_r	glut_min1_r	glut_min2_r	glut_min3_r	semimem_r	semiten_r	bifemlh_r	bifemsh_r	sar_r	add_long_r	add_brev_r	add_mag1_r	add_mag2_r	add_mag3_r	tfl_r	pect_r	grac_r	glut_max1_r	glut_max2_r	glut_max3_r	iliacus_r	psoas_r	quad_fem_r	gem_r	peri_r	rect_fem_r	vas_med_r	vas_int_r	vas_lat_r	med_gas_r	lat_gas_r	soleus_r	tib_post_r	flex_dig_r	flex_hal_r	tib_ant_r	per_brev_r	per_long_r	per_tert_r	ext_dig_r	ext_hal_r	glut_med1_l	glut_med2_l	glut_med3_l	glut_min1_l	glut_min2_l	glut_min3_l	semimem_l	semiten_l	bifemlh_l	bifemsh_l	sar_l	add_long_l	add_brev_l	add_mag1_l	add_mag2_l	add_mag3_l	tfl_l	pect_l	grac_l	glut_max1_l	glut_max2_l	glut_max3_l	iliacus_l	psoas_l	quad_fem_l	gem_l	peri_l	rect_fem_l	vas_med_l	vas_int_l	vas_lat_l	med_gas_l	lat_gas_l	soleus_l	tib_post_l	flex_dig_l	flex_hal_l	tib_ant_l	per_brev_l	per_long_l	per_tert_l	ext_dig_l	ext_hal_l	ercspn_r	ercspn_l	intobl_r	intobl_l	extobl_r	extobl_l	contactForce_femur_lat_meniscii_l.femur_lat_l.force.X	contactForce_femur_lat_meniscii_l.femur_lat_l.force.Y	contactForce_femur_lat_meniscii_l.femur_lat_l.force.Z	contactForce_femur_lat_meniscii_l.femur_lat_l.torque.X	contactForce_femur_lat_meniscii_l.femur_lat_l.torque.Y	contactForce_femur_lat_meniscii_l.femur_lat_l.torque.Z	contactForce_femur_lat_meniscii_l.meniscus_lat_l.force.X	contactForce_femur_lat_meniscii_l.meniscus_lat_l.force.Y	contactForce_femur_lat_meniscii_l.meniscus_lat_l.force.Z	contactForce_femur_lat_meniscii_l.meniscus_lat_l.torque.X	contactForce_femur_lat_meniscii_l.meniscus_lat_l.torque.Y	contactForce_femur_lat_meniscii_l.meniscus_lat_l.torque.Z	contactForce_femur_med_meniscii_l.femur_med_l.force.X	contactForce_femur_med_meniscii_l.femur_med_l.force.Y	contactForce_femur_med_meniscii_l.femur_med_l.force.Z	contactForce_femur_med_meniscii_l.femur_med_l.torque.X	contactForce_femur_med_meniscii_l.femur_med_l.torque.Y	contactForce_femur_med_meniscii_l.femur_med_l.torque.Z	contactForce_femur_med_meniscii_l.meniscus_med_l.force.X	contactForce_femur_med_meniscii_l.meniscus_med_l.force.Y	contactForce_femur_med_meniscii_l.meniscus_med_l.force.Z	contactForce_femur_med_meniscii_l.meniscus_med_l.torque.X	contactForce_femur_med_meniscii_l.meniscus_med_l.torque.Y	contactForce_femur_med_meniscii_l.meniscus_med_l.torque.Z	contactForce_femur_lat_meniscii_r.femur_lat_r.force.X	contactForce_femur_lat_meniscii_r.femur_lat_r.force.Y	contactForce_femur_lat_meniscii_r.femur_lat_r.force.Z	contactForce_femur_lat_meniscii_r.femur_lat_r.torque.X	contactForce_femur_lat_meniscii_r.femur_lat_r.torque.Y	contactForce_femur_lat_meniscii_r.femur_lat_r.torque.Z	contactForce_femur_lat_meniscii_r.meniscus_lat_r.force.X	contactForce_femur_lat_meniscii_r.meniscus_lat_r.force.Y	contactForce_femur_lat_meniscii_r.meniscus_lat_r.force.Z	contactForce_femur_lat_meniscii_r.meniscus_lat_r.torque.X	contactForce_femur_lat_meniscii_r.meniscus_lat_r.torque.Y	contactForce_femur_lat_meniscii_r.meniscus_lat_r.torque.Z	contactForce_femur_med_meniscii_r.femur_med_r.force.X	contactForce_femur_med_meniscii_r.femur_med_r.force.Y	contactForce_femur_med_meniscii_r.femur_med_r.force.Z	contactForce_femur_med_meniscii_r.femur_med_r.torque.X	contactForce_femur_med_meniscii_r.femur_med_r.torque.Y	contactForce_femur_med_meniscii_r.femur_med_r.torque.Z	contactForce_femur_med_meniscii_r.meniscus_med_r.force.X	contactForce_femur_med_meniscii_r.meniscus_med_r.force.Y	contactForce_femur_med_meniscii_r.meniscus_med_r.force.Z	contactForce_femur_med_meniscii_r.meniscus_med_r.torque.X	contactForce_femur_med_meniscii_r.meniscus_med_r.torque.Y	contactForce_femur_med_meniscii_r.meniscus_med_r.torque.Z
      0.25370794	     11.53500034	      5.57988084	      4.59369720	      5.33793326	      5.26687538	      2.92253746	      9.96767029	      4.87384955	     11.01647742	     10.65670175	      1.80825262	      7.46672115	      4.91992386	      3.08383983	      2.65681758	      4.30345136	      5.01426285	      2.85284267	      1.85937479	      3.46779879	      5.22347064	      3.65380291	     23.89723419	     15.42549260	      2.29558175	      0.76773593	      1.78044467	     12.00704824	      5.89353026	      6.55351122	      8.40677258	      1.66773603	      0.77848085	      2.49255413	      3.47069825	      3.63833501	      1.96742433	     16.53917502	      4.15931302	      6.71194554	      3.80849324	      8.45825250	      2.21453804	     11.28634352	      5.60830517	      4.70320332	      5.22307538	      5.16914925	      2.97342230	     10.68727321	      5.02883554	     11.20946735	     10.66698145	      1.79928638	      7.43667217	      4.83795558	      3.04695072	      2.61808042	      4.21764763	      5.07754104	      2.85314883	      1.83521445	      3.46969111	      5.20722935	      3.61607757	     24.00174048	     15.54495353	      2.38311619	      0.83358319	      1.92794939	     12.10121917	      5.60769062	      6.88930863	      7.94359911	      1.57146942	      0.76316975	      2.40960546	      3.50718013	      3.47999917	      1.92428622	     16.60954567	      4.04848158	      6.69586086	     10.06742228	      8.35947689	      2.21235214	     28.53026890	     28.53026890	     10.38865373	     10.38865373	     28.05261106	     28.05261106	      0.62342463	      1.09542747	     -0.59751621	      0.27364571	     -0.00386218	      0.27849313	     -0.62342463	     -1.09542747	      0.59751621	     -0.04531266	      0.01608321	     -0.01785467	     -3.32778387	     27.63190847	     -3.49765332	      1.01989936	      0.09393759	     -0.23692510	      3.32778387	    -27.63190847	      3.49765332	      0.28923545	     -0.03142488	     -0.51477092	      1.88225359	      3.53465269	      1.69846910	     -0.78810771	      0.01352291	      0.84537362	     -1.88225359	     -3.53465269	     -1.69846910	      0.14178543	     -0.04997352	     -0.05325873	     -4.69598737	     24.36767611	      2.78178763	     -0.76268439	     -0.03917321	     -0.95189517	      4.69598737	    -24.36767611	     -2.78178763	     -0.25956092	     -0.00532153	     -0.38401474
      0.25435494	     11.48994972	      5.57191634	      4.59676440	      5.33037893	      5.25616782	      2.92009550	     10.02311592	      4.89315321	     11.01772035	     10.67237352	      1.81228320	      7.46128471	      4.91282825	      3.07999000	      2.65149354	      4.29006057	      5.02629304	      2.85179512	      1.86480219	      3.46299732	      5.21513080	      3.64639529	     23.90626685	     15.42380048	      2.30465131	      0.77381555	      1.78890038	     11.99130505	      5.90206606	      6.55292124	      8.40546706	      1.67338666	      0.78217519	      2.48973777	      3.41802652	      3.63022893	      1.94217067	     16.52021628	      4.18018306	      6.73218232	      8.74073282	      8.44086697	      2.22411006	     11.25492546	      5.60153288	      4.70268231	      5.21943046	      5.16392365	      2.97188177	     10.70726870	      5.03072485	     11.19408929	     10.67852470	      1.80337203	      7.42889584	      4.82794093	      3.04058944	      2.61178655	      4.20463347	      5.08228497	      2.85103356	      1.83855527	      3.46439796	      5.19797047	      3.60680748	     24.01112257	     15.54279132	      2.38617147	      0.83693508	      1.93292861	     12.05852680	      5.61426589	      6.88154727	      7.95745268	      1.57894010	      0.76549102	      2.41575260	      3.48197529	      3.48252254	      1.90610123	     16.58985945	      4.04239494	      6.68560696	     10.14323976	      8.32856944	      2.22358705	     28.50080395	     28.50080395	     10.37698791	     10.37698791	     28.04211772	     28.04211772	      0.58314692	      1.01933282	     -0.55933171	      0.25598189	     -0.00360920	      0.26036010	     -0.58314692	     -1.01933282	      0.55933171	     -0.04222880	      0.01500835	     -0.01673190	     -3.26244321	     27.96820490	     -3.50983556	      1.01919203	      0.09527345	     -0.19665346	      3.26244321	    -27.96820490	      3.50983556	      0.29422175	     -0.03269479	     -0.52552427	      1.78889435	      3.35602262	      1.61393861	     -0.74870006	      0.01288682	      0.80317258	     -1.78889435	     -3.35602262	     -1.61393861	      0.13451433	     -0.04740638	     -0.05062735	     -4.56971759	     24.59752305	      2.82234854	     -0.77593981	     -0.04311438	     -0.88988971	      4.56971759	    -24.59752305	     -2.82234854	     -0.26157104	     -0.00223372	     -0.39474280
      0.25522274	     11.43055169	      5.56154173	      4.60064003	      5.32069163	      5.24238908	      2.91697121	     10.10146408	      4.92012235	     11.02135128	     10.69221160	      1.81761511	      7.45378568	      4.90296226	      3.07457733	      2.64430594	      4.27230811	      5.04255578	      2.85025162	      1.87209556	      3.45659808	      5.20398879	      3.63637205	     23.91845454	     15.42148750	      2.31620074	      0.78175258	      1.80004893	     11.97516081	      5.91586486	      6.55540063	      8.40463196	      1.68144558	      0.78722006	      2.48559813	      3.34989901	      3.61790312	      1.90778622	     16.49509185	      4.20789147	      6.75948697	      9.81224967	      8.41871741	      2.23794326	     11.21384514	      5.59281330	      4.70203749	      5.21487507	      5.15741292	      2.96997739	     10.74026021	      5.03643944	     11.17918840	     10.69684925	      1.80953456	      7.41825426	      4.81420386	      3.03194048	      2.60337600	      4.18744301	      5.08972212	      2.84805841	      1.84426430	      3.45743915	      5.18576952	      3.59449369	     24.02349631	     15.53964347	      2.38988857	      0.84126750	      1.93945599	     12.01205621	      5.63319552	      6.88501420	      7.98524953	      1.59288402	      0.77062873	      2.42692458	      3.45123142	      3.48511160	      1.88145553	     16.56318432	      4.03441918	      6.67227515	      9.98905267	      8.28697472	      2.23935375	     28.46167130	     28.46167130	     10.36149573	     10.36149573	     28.02818292	     28.02818292	      0.52891869	      0.91778080	     -0.50779522	      0.23217235	     -0.00326650	      0.23597697	     -0.52891869	     -0.91778080	      0.50779522	     -0.03810011	      0.01356568	     -0.01521705	     -3.17346744	     28.38146166	     -3.52440914	      1.01808717	      0.09704625	     -0.14375881	      3.17346744	    -28.38146166	      3.52440914	      0.30041906	     -0.03441753	     -0.53911935	      1.66690252	      3.11187828	      1.50475061	     -0.69753254	      0.01203251	      0.74789440	     -1.66690252	     -3.11187828	     -1.50475061	      0.12483560	     -0.04406781	     -0.04723349	     -4.40638240	     24.87097115	      2.88059475	     -0.79595666	     -0.04842817	     -0.81082104	      4.40638240	    -24.87097115	     -2.88059475	     -0.26356440	      0.00188874	     -0.40808492
      0.25652173	     11.34407666	      5.54672304	      4.60597872	      5.30719067	      5.22310051	      2.91266177	     10.22575604	      4.96184367	     11.03193825	     10.72042890	      1.82522533	      7.44203695	      4.88739421	      3.06591043	      2.63343340	      4.24617904	      5.06698203	      2.84762457	      1.88262734	      3.44712910	      5.18743685	      3.62119294	     23.93677521	     15.41786665	      2.33213401	      0.79314246	      1.81629702	     11.96231376	      5.94218902	      6.56772977	      8.41144203	      1.69651206	      0.79619128	      2.48669481	      3.25929985	      3.59783758	      1.85648323	     16.45906826	      4.24434466	      6.79678809	     17.90034466	      8.38570045	      2.26062046	     11.15472161	      5.58056640	      4.70124619	      5.20875672	      5.14875790	      2.96752485	     10.80281902	      5.05142524	     11.16870937	     10.72816092	      1.81972714	      7.40180086	      4.79295897	      3.01871336	      2.59082828	      4.16226363	      5.10302628	      2.84331168	      1.85486689	      3.44732961	      5.16797246	      3.57630260	     24.04156615	     15.53435881	      2.39468005	      0.84741535	      1.94893156	     11.96490644	      5.67917073	      6.91529314	      8.04513416	      1.62076910	      0.78199998	      2.44860246	      3.41172581	      3.48730980	      1.84409882	     16.52300026	      4.02267904	      6.65307110	     18.94963649	      8.22470194	      2.26443749	     28.40391521	     28.40391521	     10.33863345	     10.33863345	     28.00761957	     28.00761957	      0.44220200	      0.76136112	     -0.42789783	      0.19529526	     -0.00266421	      0.19711347	     -0.44220200	     -0.76136112	      0.42789783	     -0.03173816	      0.01127676	     -0.01276449	     -3.04138927	     28.87848240	     -3.53057886	      1.01188794	      0.09913158	     -0.07034335	      3.04138927	    -28.87848240	      3.53057886	      0.30834592	     -0.03673635	     -0.55659789	      1.48454131	      2.74694641	      1.34302371	     -0.62171790	      0.01072544	      0.66533995	     -1.48454131	     -2.74694641	     -1.34302371	      0.11047638	     -0.03911480	     -0.04216166	     -4.21200174	     25.24974816	      2.99326649	     -0.83717045	     -0.05631593	     -0.71514387	      4.21200174	    -25.24974816	     -2.99326649	     -0.26514023	      0.00763808	     -0.42535971
